<?xml version="1.0" standalone="no"?>
<!DOCTYPE svg PUBLIC "-//W3C//DTD SVG 20010904//EN"
 "http://www.w3.org/TR/2001/REC-SVG-20010904/DTD/svg10.dtd">
<svg version="1.0" xmlns="http://www.w3.org/2000/svg"
 width="1551.000000pt" height="1551.000000pt" viewBox="0 0 1551.000000 1551.000000"
 preserveAspectRatio="xMidYMid meet">
<metadata>
Created by potrace 1.14, written by Peter Selinger 2001-2017
</metadata>
<g transform="translate(0.000000,1551.000000) scale(0.100000,-0.100000)"
fill="#000000" stroke="none">
<path d="M14230 15296 c-127 -47 -235 -131 -308 -239 -67 -101 -91 -176 -103
-322 -18 -227 -46 -371 -109 -550 -71 -201 -214 -451 -348 -605 -279 -320
-635 -514 -1129 -614 -252 -52 -399 -65 -848 -76 -534 -13 -768 -32 -1125 -91
-1614 -266 -2685 -1124 -3010 -2410 -69 -271 -96 -548 -66 -674 28 -116 80
-210 166 -295 86 -87 164 -132 276 -160 287 -74 583 68 704 335 38 85 50 140
60 289 22 315 152 622 380 901 70 84 211 222 300 292 287 224 686 393 1154
488 335 68 600 93 1131 105 388 9 597 25 829 61 613 95 1162 311 1611 633 311
223 610 544 791 848 177 299 300 610 378 958 41 186 57 305 63 482 5 160 5
170 -20 250 -54 174 -184 318 -347 385 -50 20 -70 22 -225 22 -114 0 -182 -5
-205 -13z"/>
<path d="M3880 9784 c-830 -125 -1790 -919 -2540 -2100 -656 -1033 -1099
-2282 -1260 -3553 -60 -476 -86 -1054 -60 -1336 62 -667 366 -1420 787 -1945
92 -115 281 -303 378 -377 291 -220 540 -300 854 -273 342 28 632 132 941 337
267 177 419 313 950 842 452 450 628 618 820 779 770 644 1505 955 2515 1064
191 21 829 17 1035 -5 933 -103 1656 -403 2385 -991 207 -167 354 -305 850
-796 281 -278 562 -550 625 -604 478 -409 850 -587 1314 -626 144 -12 232 -7
354 21 468 107 951 586 1293 1284 219 448 347 901 380 1353 20 269 -9 837 -66
1287 -204 1606 -855 3151 -1808 4295 -146 175 -520 552 -670 676 -557 458
-1073 684 -1560 684 -310 0 -635 -78 -909 -219 -262 -135 -470 -291 -888 -666
-361 -325 -490 -429 -685 -557 -147 -97 -363 -204 -508 -252 -222 -74 -515
-114 -742 -101 -534 29 -945 214 -1460 656 -55 47 -197 172 -315 278 -393 353
-624 523 -883 651 -354 175 -772 247 -1127 194z m7711 -2228 c248 -70 436
-248 519 -492 32 -94 34 -106 34 -239 0 -132 -2 -145 -33 -235 -92 -270 -302
-453 -579 -506 -356 -68 -719 137 -842 474 -118 326 -11 687 265 892 62 46
120 76 205 107 61 22 75 24 220 19 97 -3 176 -10 211 -20z m-6861 -731 l0
-605 605 0 605 0 0 -605 0 -605 -605 0 -605 0 0 -605 0 -605 -605 0 -605 0 0
605 0 605 -605 0 -605 0 0 605 0 605 605 0 605 0 0 605 0 605 605 0 605 0 0
-605z m5640 -480 c36 -8 108 -37 160 -62 80 -40 109 -61 186 -137 76 -77 97
-106 137 -186 61 -125 80 -207 80 -350 1 -89 -4 -133 -22 -194 -74 -263 -271
-461 -531 -532 -102 -29 -312 -26 -410 4 -253 80 -432 259 -512 512 -19 63
-23 96 -23 210 0 161 14 222 82 360 40 80 61 109 138 185 101 101 172 147 290
188 77 27 86 28 220 23 77 -3 169 -12 205 -21z m2440 -5 c211 -60 377 -196
470 -385 60 -121 75 -188 75 -345 0 -114 -4 -147 -23 -210 -80 -253 -259 -432
-512 -512 -98 -30 -308 -33 -410 -4 -261 71 -462 274 -531 533 -28 101 -30
277 -5 378 21 90 92 234 150 307 88 110 222 202 366 250 77 26 311 19 420 -12z
m-1344 -1190 c193 -20 329 -85 465 -220 72 -72 94 -102 133 -181 66 -135 81
-199 80 -349 0 -145 -16 -214 -74 -335 -74 -152 -186 -263 -345 -340 -111 -54
-205 -75 -330 -75 -125 0 -219 21 -330 75 -159 77 -271 188 -345 340 -59 122
-74 190 -74 335 0 149 15 216 78 345 96 195 247 325 451 391 78 26 149 29 291
14z"/>
</g>
</svg>
